<svg xmlns="http://www.w3.org/2000/svg" viewBox="0 0 560 560" fill="none" shape-rendering="auto" width="128" height="128"><metadata xmlns:rdf="http://www.w3.org/1999/02/22-rdf-syntax-ns#" xmlns:xsi="http://www.w3.org/2001/XMLSchema-instance" xmlns:dc="http://purl.org/dc/elements/1.1/" xmlns:dcterms="http://purl.org/dc/terms/"><rdf:RDF><rdf:Description><dc:title>Notionists</dc:title><dc:creator>Zoish</dc:creator><dc:source xsi:type="dcterms:URI">https://heyzoish.gumroad.com/l/notionists</dc:source><dcterms:license xsi:type="dcterms:URI">https://creativecommons.org/publicdomain/zero/1.0/</dcterms:license><dc:rights>Remix of „Notionists” (https://heyzoish.gumroad.com/l/notionists) by „Zoish”, licensed under „CC0 1.0” (https://creativecommons.org/publicdomain/zero/1.0/)</dc:rights></rdf:Description></rdf:RDF></metadata><mask id="viewboxMask"><rect width="560" height="560" rx="280" ry="280" x="0" y="0" fill="#fff" /></mask><g mask="url(#viewboxMask)"><rect fill="#EFE7DE" width="560" height="560" x="0" y="0" /><g transform="translate(136 328)"><path d="M203 92.2c5.7-4 7-10.6 8.7-16.5 2-7-1.7-13-8.8-12-8.2 1-16.6 1.4-24.6 5a65 65 0 0 1-54 1.2c-8.1-3.7-16.7-6-25.5-7.1C86 61.3 80.5 67 81 79.5c.4 10.9 10.2 19.6 23.5 20.1 32 1.3 63.1-12.1 95.4-6 .4.1.8-.3 3-1.4Z" fill="#fff"/><path fill-rule="evenodd" clip-rule="evenodd" d="M123.6 54.3c-10-5.3-20.7-10.8-34-7.2C68.1 55.6 62.4 69.3 68.5 90c6.2 21 36.6 27.8 55.7 24.8 5.5-.8 11-2.3 16.6-3.8 13.8-3.6 27.6-7.2 42-1.8 13.1 5 23.4-.7 33-8 11-8.3 15.3-33 8.6-44.5-4.8-8.1-21.5-13-32.4-9a125 125 0 0 0-20.8 9.5c-14.3 8.6-27.5 7.1-42.1 0l-5.5-2.8ZM211 77.8c-1.5 5.4-3 11-8.1 14.4a62.1 62.1 0 0 0-3 1.4c-18.4-3.5-36.5-.6-54.6 2.3a208 208 0 0 1-40.8 3.7c-13.3-.5-23-9.2-23.5-20C80.5 67 86 61.2 98.8 62.7c8.8 1 17.4 3.4 25.5 7a65 65 0 0 0 54-1.1c6.6-3 13.4-3.7 20.2-4.5l4.4-.5c7.1-1 10.8 5 8.8 12l-.6 2.1Z" fill="#000"/></g><g transform="translate(246 125)"><path d="M7.4 185c5.4-8.7 22.6-12.2 32.1-7.3 6.6 3.4 13 7.6 20 1.7 6.5-5.6 4.6-12.2 1.5-18.7-1.6-3.2-.8-5.7 2.2-7.5 3-1.9 5.5-1.1 8.2.8a20.1 20.1 0 0 1 8 21.5c-1.6 7.3-3.8 16-12.7 19-4 1.4-8.8 3.5-12.3 2.4-15.4-4.7-33.8 3.4-47-12Z" fill="#000"/></g><g transform="translate(-45 137)"><path d="M215.1 76.6c5-12 9-29.4 24.1-22.5 20.7 9.4 13.9 30.7 9.7 47.4-1.6 6.3-14.5 15.9-18.3 14.3-16.3-6.8-19.2-21.7-15.5-39.2ZM442 113.4c-8.6 7.5-17 7.6-22.2-1.5-9-16-8.6-32.8 3.3-47.2 2.5-3 13.8-3.6 16.3-1 14 15 14.6 31.8 2.6 49.7Z" fill="#000"/></g><g transform="translate(-45 137)"></g><g transform="translate(119 114)"><path d="M53.5 37.6a79.2 79.2 0 0 0 27.3-19.8c2.7-3 6.1-5.7 9.9-5 6.7 1.1 16.2-1 18.8 7.5 2.1 7-5.2 10.5-10.3 14.4-13.8 10.5-28.2 19-46.6 16.7-4.6-.5-9.7.2-11-6.2 1.6-5.5 7.3-4.9 11.9-7.6ZM251.4 15c8.5-1.7 12.6 4.1 17.1 8.2 8.1 7.4 14.7 16.4 26 19.8 3.3 1 5.7 4 4 8-1.5 3.5-4 5.7-8 4.6-14.3-3.8-29.2-5.9-40.6-16.8-10-9.6-10.2-14 1.5-23.7Z" fill="#000"/></g></g></svg>